<?xml version="1.0" standalone="no"?>
<!DOCTYPE svg PUBLIC "-//W3C//DTD SVG 20010904//EN"
 "http://www.w3.org/TR/2001/REC-SVG-20010904/DTD/svg10.dtd">
<svg version="1.0" xmlns="http://www.w3.org/2000/svg"
 width="276.000000pt" height="276.000000pt" viewBox="0 0 276.000000 276.000000"
 preserveAspectRatio="xMidYMid meet">
<metadata>
Created by potrace 1.11, written by Peter Selinger 2001-2013
</metadata>
<g transform="translate(0.000000,276.000000) scale(0.100000,-0.100000)"
fill="#000000" stroke="none">
<path d="M723 2624 c-3 -9 -13 -14 -24 -11 -10 3 -28 -2 -40 -11 -18 -12 -21
-13 -15 -1 4 8 -1 3 -12 -10 -15 -18 -21 -21 -25 -10 -4 11 -6 11 -6 1 -1 -7
-5 -10 -11 -7 -5 3 -10 -1 -10 -9 0 -8 -10 -20 -21 -27 -15 -8 -19 -8 -15 0 4
6 3 11 -2 11 -14 0 -35 -28 -28 -38 3 -5 -1 -9 -9 -10 -8 -1 -22 -3 -30 -4
-11 -1 -12 -5 -3 -15 9 -11 7 -12 -7 -7 -14 6 -16 4 -10 -6 6 -10 4 -12 -7 -8
-9 4 -21 -4 -32 -23 -10 -16 -21 -27 -27 -24 -5 3 -6 -1 -3 -9 4 -10 1 -16 -9
-16 -9 0 -19 -5 -23 -12 -5 -7 -3 -8 7 -3 11 7 12 6 2 -6 -6 -8 -10 -35 -9
-61 1 -27 -2 -48 -7 -48 -4 0 -5 -6 -1 -12 5 -8 0 -7 -11 2 -11 9 -16 10 -11
3 4 -7 3 -13 -1 -13 -5 0 -14 -9 -21 -21 -8 -12 -10 -19 -5 -16 5 3 9 -3 9
-13 0 -15 -3 -17 -15 -7 -12 10 -13 9 -7 -2 5 -8 4 -16 -4 -21 -9 -6 -7 -10 8
-14 11 -4 23 -14 26 -24 3 -9 15 -32 26 -50 11 -18 16 -31 10 -27 -8 5 -14
-13 -12 -36 1 -3 -10 -5 -24 -3 -13 1 -22 -2 -18 -7 3 -5 0 -9 -6 -9 -6 0 -9
-3 -7 -7 3 -5 -1 -13 -8 -20 -11 -10 -15 -10 -18 0 -3 7 -6 2 -6 -11 -1 -13
-5 -21 -10 -18 -4 3 -7 -6 -5 -19 1 -14 -3 -25 -9 -25 -7 0 -3 -7 7 -15 19
-14 12 -20 -19 -16 -5 1 0 -8 13 -18 13 -11 23 -22 22 -25 -1 -20 1 -27 8 -22
5 3 16 -6 26 -20 11 -13 26 -24 34 -24 13 0 12 -3 -4 -16 -10 -8 -12 -13 -4
-9 8 4 6 -1 -4 -9 -11 -9 -24 -16 -29 -16 -4 0 -6 -4 -2 -10 3 -5 -3 -18 -13
-28 -10 -10 -18 -26 -16 -35 1 -9 -2 -17 -7 -17 -6 0 -5 -9 2 -21 8 -15 8 -19
0 -15 -8 5 -8 0 0 -18 7 -14 16 -23 20 -20 5 3 9 -4 9 -16 0 -12 4 -19 9 -15
5 3 16 -3 23 -13 7 -10 23 -24 35 -30 12 -7 20 -19 18 -29 -2 -10 -4 -25 -5
-33 -1 -11 -3 -12 -7 -2 -3 9 -10 4 -19 -14 -8 -15 -13 -33 -10 -41 3 -7 0
-15 -6 -19 -6 -4 -8 -3 -5 3 3 5 1 10 -6 10 -8 0 -11 -16 -10 -44 1 -31 -2
-41 -10 -37 -7 4 -8 3 -4 -2 5 -5 13 -9 19 -9 6 0 13 -10 15 -23 4 -26 27 -54
37 -45 3 4 6 -1 6 -10 0 -9 3 -16 8 -16 19 3 33 -2 27 -11 -3 -6 -2 -10 2 -10
5 0 18 -7 29 -16 10 -8 14 -13 9 -10 -6 2 -17 -5 -24 -17 -11 -18 -11 -20 0
-10 7 7 17 13 22 13 5 0 -2 -9 -17 -21 -14 -11 -30 -18 -36 -14 -6 3 -7 0 -4
-9 4 -9 1 -16 -6 -16 -7 0 -10 -7 -6 -15 3 -8 0 -15 -6 -15 -7 0 -7 -4 1 -13
8 -10 7 -17 -1 -25 -9 -9 -8 -12 6 -12 9 0 14 -5 11 -10 -3 -6 -1 -10 5 -10 6
0 8 -4 5 -10 -3 -5 -1 -10 5 -10 6 0 9 -4 6 -9 -3 -5 1 -12 10 -15 10 -4 13
-2 9 7 -4 6 0 4 8 -6 8 -9 19 -17 26 -17 6 0 11 -4 11 -10 0 -5 7 -10 16 -10
8 0 12 -4 9 -10 -3 -5 -1 -10 4 -10 6 0 11 -5 11 -11 0 -5 -5 -7 -11 -3 -7 4
-7 -1 1 -16 10 -18 9 -21 -1 -15 -9 6 -11 2 -7 -13 4 -12 3 -20 -2 -17 -4 3
-11 -2 -14 -11 -3 -8 -2 -12 4 -9 6 3 7 -1 4 -9 -3 -9 -11 -13 -18 -9 -7 4 -7
1 1 -9 7 -8 10 -18 6 -21 -3 -4 -2 -7 4 -7 6 0 9 -11 8 -25 -2 -14 1 -27 6
-31 5 -3 6 -10 3 -16 -4 -7 -2 -8 4 -4 7 4 12 2 12 -4 0 -6 4 -8 10 -5 6 3 10
-4 10 -17 0 -18 2 -20 10 -8 8 12 10 12 15 -2 7 -17 21 -18 42 -5 8 5 13 3 13
-4 0 -6 8 -9 20 -6 11 3 20 1 20 -4 0 -5 8 -13 18 -16 9 -4 26 -16 37 -27 20
-20 20 -20 -10 -1 l-30 18 23 -26 c17 -18 20 -27 11 -32 -8 -5 -10 -4 -5 3 5
8 1 10 -10 5 -14 -5 -13 -8 6 -18 17 -9 19 -14 9 -18 -10 -4 -10 -6 -1 -6 6
-1 12 -10 12 -22 0 -13 4 -18 12 -13 7 5 9 2 5 -9 -4 -11 -2 -14 9 -10 7 3 14
0 14 -6 0 -6 6 -8 14 -5 8 3 17 0 22 -7 4 -8 3 -10 -4 -5 -8 5 -10 1 -5 -9 3
-9 9 -13 12 -8 3 5 24 10 46 10 47 1 82 -26 62 -47 -9 -10 -9 -11 2 -5 11 6
13 4 7 -10 -6 -16 -4 -16 10 -4 16 13 16 12 6 -8 -11 -20 -10 -21 9 -18 18 4
19 2 7 -12 -9 -12 -9 -15 0 -9 7 4 12 2 12 -4 0 -6 4 -8 10 -5 5 3 10 1 10 -5
0 -6 5 -8 10 -5 6 3 10 2 10 -4 0 -6 7 -8 15 -5 8 4 17 -1 21 -10 3 -9 10 -16
16 -16 5 0 6 6 2 13 -5 7 0 6 11 -3 17 -14 18 -13 11 5 -6 16 -5 18 5 8 18
-18 32 -16 25 3 -3 9 -2 12 5 9 5 -4 17 -1 26 7 14 11 15 10 8 -12 l-8 -25 19
23 c18 21 20 22 39 7 11 -9 13 -13 5 -9 -8 4 2 -9 24 -28 28 -27 45 -35 63
-32 17 3 22 1 17 -7 -4 -7 -3 -9 4 -5 6 3 13 2 17 -4 3 -5 11 -10 18 -10 6 0
2 6 -9 14 -18 14 -16 14 19 12 20 -2 37 0 37 3 0 4 16 5 35 3 19 -2 35 -8 35
-14 0 -5 5 -6 10 -3 6 3 10 -2 10 -11 0 -10 3 -14 7 -11 3 4 18 0 31 -9 24
-16 25 -16 19 2 -7 18 -6 18 8 0 8 -11 15 -14 15 -7 0 7 5 9 10 6 6 -4 8 -10
5 -14 -2 -5 7 -7 20 -5 14 1 25 -2 25 -7 0 -6 6 -7 13 -2 20 13 68 12 60 -1
-3 -6 0 -6 8 2 7 6 21 12 31 12 10 0 18 5 18 12 0 6 7 3 16 -8 13 -16 15 -16
10 -2 -3 10 0 20 6 24 6 4 8 3 4 -4 -3 -6 -2 -13 3 -16 5 -3 12 2 15 11 6 15
8 15 16 3 6 -9 10 -10 10 -3 0 7 9 10 21 8 15 -3 19 0 15 11 -3 9 -1 12 4 9 6
-3 10 0 10 7 0 9 3 9 10 -2 8 -13 10 -13 10 2 0 12 6 16 21 13 17 -3 18 -1 10
9 -9 11 -8 14 6 12 12 0 17 5 17 17 -2 15 1 16 14 5 14 -11 15 -10 9 6 -7 17
-6 17 10 5 11 -9 14 -10 9 -2 -4 8 -2 13 4 13 6 0 8 6 4 13 -5 9 -4 9 6 0 7
-6 19 -9 26 -6 8 3 14 0 14 -7 0 -6 5 -8 10 -5 6 4 8 11 5 16 -4 5 1 9 10 9
10 0 13 -5 9 -12 -4 -7 -3 -8 4 -4 6 4 8 14 5 23 -4 10 -2 14 4 10 14 -9 45 2
38 13 -8 12 23 33 36 24 8 -4 9 -3 5 4 -4 7 -2 12 4 12 6 0 9 4 5 9 -3 5 0 13
6 17 8 4 9 3 5 -4 -10 -17 3 -15 21 3 8 8 19 13 23 10 5 -3 7 4 5 16 -4 18 -2
19 12 7 10 -8 14 -8 10 -1 -4 7 6 25 25 44 18 18 25 27 16 19 -12 -8 -18 -9
-18 -1 0 6 4 11 8 11 5 0 17 7 28 16 19 15 19 16 -1 10 -19 -6 -19 -5 -2 8 9
7 17 18 17 24 0 6 6 15 13 19 6 4 12 21 12 37 1 17 7 31 15 34 13 3 13 2 0 -8
-10 -8 -11 -10 -2 -8 8 2 14 7 14 11 1 3 4 27 8 51 4 25 3 43 -2 40 -4 -3 -8
-1 -8 5 0 5 6 12 13 14 7 3 5 6 -5 6 -13 1 -17 8 -16 25 1 14 6 22 12 19 5 -4
7 3 4 15 -6 20 2 27 24 23 4 0 5 5 2 12 -2 7 4 24 16 37 11 13 20 32 20 44 0
17 2 18 10 6 7 -12 9 -10 7 7 0 12 -5 19 -9 17 -4 -3 -8 4 -8 15 0 10 6 22 13
24 6 3 1 6 -12 6 -13 1 -22 4 -18 7 3 4 -1 13 -10 22 -14 14 -14 17 2 28 9 7
16 16 16 21 -1 4 4 9 9 9 23 3 24 5 11 13 -12 8 -9 11 12 16 15 4 24 11 21 16
-3 5 -1 9 5 9 5 0 8 9 6 20 -2 11 0 20 5 20 6 0 6 10 0 26 -7 16 -7 23 0 19 6
-3 10 -2 10 4 0 5 -5 13 -10 16 -6 4 -8 10 -5 15 3 5 -3 11 -14 15 -11 3 -22
12 -25 20 -3 8 -11 15 -18 15 -7 0 -18 11 -25 25 -7 16 -7 25 -1 25 6 0 8 7 5
15 -4 8 -2 17 4 20 5 4 6 12 2 18 -4 8 -2 8 9 -1 13 -10 17 -10 22 3 4 11 2
14 -7 9 -9 -6 -9 -4 1 8 15 18 12 59 -5 80 -7 7 -17 26 -22 42 -6 15 -17 26
-23 24 -7 -3 -21 5 -31 16 -10 12 -16 16 -13 9 4 -6 2 -14 -3 -17 -5 -4 -8 2
-6 11 1 10 0 22 -3 27 -9 16 -8 56 1 56 4 0 5 5 1 11 -3 6 0 15 7 20 11 7 11
9 1 9 -8 0 -10 5 -6 12 11 17 11 58 1 58 -5 0 -7 7 -3 15 3 9 0 15 -8 15 -8 0
-17 7 -20 16 -4 9 -13 14 -22 10 -8 -3 -12 -2 -9 4 3 6 1 10 -5 10 -6 0 -9 4
-5 9 3 6 -3 8 -15 6 -11 -2 -22 1 -26 6 -3 6 -11 6 -17 1 -17 -12 -65 -13 -72
-2 -4 6 -11 8 -16 5 -5 -4 -9 1 -9 10 0 10 5 14 13 10 6 -4 5 -1 -4 7 -18 15
-14 42 4 31 7 -4 6 1 -2 11 -13 15 -13 19 0 27 11 7 11 9 1 9 -7 0 -12 8 -10
19 2 11 -6 28 -18 38 -11 10 -23 26 -27 36 -3 9 -12 17 -19 17 -9 0 -9 -3 2
-10 12 -7 10 -9 -7 -7 -12 0 -19 5 -17 9 7 11 -33 4 -43 -7 -5 -4 -2 -5 6 0
10 6 12 4 7 -4 -6 -9 -11 -9 -22 0 -12 10 -17 9 -27 0 -9 -10 -8 -11 8 -6 16
6 17 5 5 -4 -21 -15 -30 -14 -30 4 0 8 -6 15 -12 16 -7 0 -4 4 7 9 11 5 14 9
7 9 -7 1 -10 6 -7 11 3 6 1 10 -6 10 -8 0 -7 5 2 17 12 14 12 16 0 8 -10 -5
-12 -4 -7 3 13 21 16 53 4 46 -7 -5 -9 -2 -5 9 3 9 1 19 -5 23 -7 5 -8 2 -3
-6 6 -9 4 -11 -4 -6 -7 5 -10 15 -7 23 3 8 2 12 -3 9 -5 -3 -11 1 -15 9 -3 8
-13 15 -21 15 -9 0 -14 4 -11 9 3 5 -6 9 -20 9 -15 0 -30 5 -34 13 -12 18 -43
21 -36 3 4 -10 2 -13 -7 -7 -22 14 -39 12 -33 -3 3 -8 2 -12 -3 -9 -5 3 -13 1
-16 -5 -5 -8 -11 -8 -20 0 -9 8 -14 8 -17 0 -2 -6 -12 -4 -26 6 -17 12 -21 19
-13 27 14 14 14 40 0 31 -8 -5 -8 -1 0 13 6 11 8 23 5 26 -5 5 -11 29 -13 50
-1 5 -5 5 -11 2 -5 -3 -10 1 -10 9 0 9 -4 16 -9 16 -5 0 -23 14 -41 30 -33 31
-46 38 -35 19 5 -7 -4 -8 -28 -4 -20 4 -37 3 -41 -4 -4 -5 -14 -7 -23 -4 -10
4 -14 2 -10 -4 4 -6 0 -16 -8 -23 -13 -11 -20 -9 -40 10 -19 18 -22 27 -14 42
5 10 6 18 2 17 -21 -3 -31 2 -29 17 1 16 -10 21 -64 27 -14 2 -24 9 -22 16 1
7 -2 10 -8 6 -6 -3 -8 -10 -5 -14 2 -5 -7 -6 -22 -3 -19 4 -24 2 -18 -8 6 -9
4 -11 -4 -6 -7 5 -19 0 -27 -10 -9 -11 -12 -13 -9 -6 6 11 3 12 -14 3 -11 -7
-21 -14 -21 -17 0 -3 5 -2 12 2 6 4 8 3 5 -4 -4 -5 -15 -9 -25 -7 -9 2 -23 4
-30 4 -7 1 -11 5 -7 10 3 5 1 12 -5 16 -6 4 -8 11 -5 16 4 5 1 9 -5 9 -6 0 -8
5 -5 10 3 6 -1 10 -9 10 -9 0 -16 5 -16 11 0 5 -5 7 -12 3 -8 -5 -9 -2 -5 10
4 9 3 14 -2 11 -5 -3 -12 -1 -15 3 -7 13 -81 -2 -79 -15 1 -6 -7 -13 -17 -16
-11 -3 -20 -1 -20 4 0 5 -7 9 -15 9 -8 0 -15 4 -15 8 0 7 -16 11 -57 14 -7 1
-13 6 -13 11 0 5 -8 3 -17 -4 -15 -12 -16 -12 -10 4 3 9 4 17 1 17 -2 0 -7 -7
-11 -16z m-416 -1349 c0 -8 -4 -12 -9 -9 -5 3 -6 10 -3 15 9 13 12 11 12 -6z"/>
<path d="M1355 2450 c20 -22 35 -26 35 -9 0 5 -5 7 -10 4 -6 -3 -13 1 -16 9
-3 9 -11 16 -17 16 -5 0 -2 -9 8 -20z"/>
<path d="M316 2087 c3 -10 9 -15 12 -12 3 3 0 11 -7 18 -10 9 -11 8 -5 -6z"/>
<path d="M2430 1480 c0 -5 5 -10 11 -10 5 0 7 5 4 10 -3 6 -8 10 -11 10 -2 0
-4 -4 -4 -10z"/>
</g>
</svg>
